<svg width="67" height="66" viewBox="0 0 67 66" fill="none" xmlns="http://www.w3.org/2000/svg">
<path d="M38.7469 2.02914C41.0424 10.5406 56.6119 13.33 66.9631 18.8222C67.1912 23.9097 64.91 29.3152 58.8789 33.6078C59.2924 43.7539 52.9191 49.5351 42.5822 52.7437C42.5395 57.5421 40.7715 61.9937 35.8383 65.7949L27.4262 60.5339L34.1844 55.591C33.9277 51.891 32.8156 48.032 26.3426 45.864L22.5928 32.3937C14.8223 30.8906 15.193 27.8699 14.5656 25.0371L5.30803 27.9855C-1.70026 23.505 -2.09206 17.0878 6.20056 15.9316L7.19719 5.41262L14.4943 6.73074L15.9629 1.35273L23.0348 0.210938L25.9861 5.60629L38.7469 2.02914Z" fill="#2BBE41"/>
</svg>
