<svg width="62" height="63" viewBox="0 0 62 63" fill="none" xmlns="http://www.w3.org/2000/svg">
<path d="M31 57.6335C45.2678 57.6335 56.8333 46.0679 56.8333 31.8001C56.8333 17.5324 45.2678 5.9668 31 5.9668C16.7323 5.9668 5.16667 17.5324 5.16667 31.8001C5.16667 46.0679 16.7323 57.6335 31 57.6335Z" stroke="#1FB841" stroke-width="1.5" stroke-linecap="round" stroke-linejoin="round"/>
<path d="M38.75 22.7578C36.9804 20.9882 33.8649 19.7586 31 19.6811M31 19.6811C27.59 19.5881 24.5417 21.1303 24.5417 25.3411C24.5417 33.0911 38.75 29.2161 38.75 36.9661C38.75 41.3862 34.968 43.285 31 43.1429M31 19.6811V15.0078M23.25 39.5495C24.9137 41.7711 28.0111 43.037 31 43.1429M31 43.1429V48.5911" stroke="#1FB841" stroke-width="1.5" stroke-linecap="round" stroke-linejoin="round"/>
</svg>
