<svg width="38" height="21" viewBox="0 0 38 21" fill="none" xmlns="http://www.w3.org/2000/svg">
<path d="M32.3861 8.86776H28.8828C28.8828 6.76575 27.569 4.87394 25.6072 4.13823L14.8168 0.109375H0.855957V19.3778H11.366V16.8554L23.6278 20.2537L37.6412 15.8745V14.1228C37.6412 11.215 35.2939 8.86776 32.3861 8.86776ZM7.86267 15.8745H4.35931V3.61273H7.86267V15.8745ZM23.5752 16.5927L11.366 13.247V3.61273H14.1862L24.381 7.41387C24.9765 7.64159 25.3794 8.21964 25.3794 8.86776C25.3794 8.86776 21.8761 8.78018 21.3506 8.60501L17.1816 7.22118L16.078 10.5494L20.247 11.9332C21.1404 12.231 22.0688 12.3711 23.0147 12.3711H32.3861C33.0693 12.3711 33.6824 12.7915 33.9627 13.3696L23.5752 16.5927Z" fill="#1FB840"/>
</svg>
