<svg width="37" height="37" viewBox="0 0 37 37" fill="none" xmlns="http://www.w3.org/2000/svg">
<path fill-rule="evenodd" clip-rule="evenodd" d="M13.306 5.08203H24.406C25.7545 5.08203 26.878 5.08203 27.7705 5.20203C28.711 5.32803 29.5615 5.60703 30.2455 6.28953C30.928 6.97353 31.2055 7.82403 31.333 8.76453C31.453 9.65703 31.453 10.782 31.453 12.129V23.055L33.7225 25.3965L33.727 25.4025L33.739 25.413L33.7495 25.425L33.7585 25.434L33.7735 25.449L33.7885 25.4655L33.796 25.473L33.808 25.4865L33.8215 25.5015L33.8335 25.5165L33.8515 25.539C34.4095 26.184 34.906 27.15 34.9735 28.1145V28.1205L34.978 28.155V28.1745L34.981 28.1955V28.368C34.981 28.563 34.981 28.8465 34.9735 28.968C34.9098 29.9696 34.4832 30.9135 33.7736 31.6232C33.064 32.3328 32.12 32.7594 31.1185 32.823C30.9865 32.832 30.841 32.832 30.652 32.832H7.06146C6.87246 32.832 6.72696 32.832 6.59646 32.823C5.59439 32.7601 4.6497 32.3338 3.93946 31.6241C3.22922 30.9144 2.8022 29.97 2.73846 28.968C2.73206 28.7691 2.73006 28.57 2.73246 28.371V28.1955L2.73396 28.1745V28.1565L2.73846 28.1205V28.1145C2.80746 27.15 3.30396 26.1855 3.86196 25.539L3.87996 25.5165L3.89196 25.5015L3.90696 25.4865L3.91746 25.473L3.92346 25.4655L3.93996 25.4505L3.95496 25.434L3.96246 25.425L3.97446 25.413L3.98496 25.4025L3.99096 25.3965L6.26046 23.055V12.129C6.26046 10.782 6.26046 9.65703 6.38046 8.76603C6.50646 7.82403 6.78546 6.97353 7.46796 6.29103C8.15196 5.60703 9.00246 5.32803 9.94296 5.20203C10.8355 5.08203 11.9575 5.08203 13.306 5.08203ZM7.86096 24.636L5.58996 26.9805C5.24946 27.36 4.99896 27.9195 4.98246 28.296V28.6305L4.98396 28.8255C5.01303 29.2812 5.20735 29.7105 5.53046 30.0331C5.85357 30.3557 6.28328 30.5492 6.73896 30.5775C6.78846 30.582 6.85596 30.582 7.09746 30.582H30.6145C30.8545 30.582 30.9235 30.582 30.9745 30.5775C31.4296 30.5485 31.8586 30.3546 32.1811 30.0321C32.5036 29.7097 32.6975 29.2807 32.7265 28.8255L32.728 28.773L32.7295 28.3875V28.2975C32.713 27.9195 32.4625 27.36 32.1205 26.9805L29.8495 24.636H7.86096ZM29.2015 22.386V12.207C29.2015 10.761 29.1985 9.78903 29.101 9.06453C29.008 8.37303 28.8475 8.07603 28.651 7.88103C28.4545 7.68603 28.1605 7.52553 27.469 7.43103C26.7445 7.33503 25.7725 7.33203 24.3265 7.33203H13.3855C11.9395 7.33203 10.9675 7.33503 10.243 7.43253C9.55146 7.52553 9.25446 7.68603 9.05946 7.88253C8.86446 8.07903 8.70246 8.37303 8.60946 9.06453C8.51196 9.78903 8.51046 10.761 8.51046 12.207V22.386H29.2015ZM4.35246 27.243L4.30596 27.225L4.31946 27.2325L4.35246 27.243ZM13.981 27.957C13.981 27.6587 14.0995 27.3725 14.3105 27.1615C14.5214 26.9506 14.8076 26.832 15.106 26.832H22.606C22.9043 26.832 23.1905 26.9506 23.4015 27.1615C23.6124 27.3725 23.731 27.6587 23.731 27.957C23.731 28.2554 23.6124 28.5415 23.4015 28.7525C23.1905 28.9635 22.9043 29.082 22.606 29.082H15.106C14.8076 29.082 14.5214 28.9635 14.3105 28.7525C14.0995 28.5415 13.981 28.2554 13.981 27.957Z" fill="#1FB841"/>
<path d="M19.981 10.332C19.981 10.6304 19.8624 10.9165 19.6515 11.1275C19.4405 11.3385 19.1543 11.457 18.856 11.457C18.5576 11.457 18.2714 11.3385 18.0605 11.1275C17.8495 10.9165 17.731 10.6304 17.731 10.332C17.731 10.0337 17.8495 9.74751 18.0605 9.53654C18.2714 9.32556 18.5576 9.20703 18.856 9.20703C19.1543 9.20703 19.4405 9.32556 19.6515 9.53654C19.8624 9.74751 19.981 10.0337 19.981 10.332Z" fill="#1FB841"/>
</svg>
