<svg width="185" height="40" viewBox="64 0 121 40" fill="none" xmlns="http://www.w3.org/2000/svg">
<g clip-path="url(#clip0_2008_10104)">
<path d="M48.9345 6.97461C51.978 6.97461 53.9631 8.49547 54.6624 11.126H51.8891C51.4599 9.92343 50.4682 9.15267 48.9345 9.15267C46.8604 9.15267 45.484 10.6959 45.484 13.4176C45.484 16.1393 46.8587 17.7067 48.9345 17.7067C50.4682 17.7067 51.4154 17.0254 51.8891 15.7333H54.6624C53.9631 18.1832 51.9797 19.8847 48.9345 19.8847C45.3711 19.8847 42.8457 17.3436 42.8457 13.4176C42.8457 9.4916 45.3711 6.97461 48.9345 6.97461Z" fill="#232425"/>
<path d="M55.0449 13.4176C55.0449 9.4916 57.8405 6.97461 61.3816 6.97461C64.9227 6.97461 67.7183 9.49332 67.7183 13.4176C67.7183 17.3419 64.8321 19.8847 61.2688 19.8847C57.7054 19.8847 55.0449 17.3436 55.0449 13.4176ZM65.08 13.4176C65.08 10.5806 63.2539 9.21977 61.3372 9.21977C59.4204 9.21977 57.661 10.5806 57.661 13.4176C57.661 16.2546 59.3298 17.6378 61.2688 17.6378C63.2077 17.6378 65.08 16.2546 65.08 13.4176Z" fill="#232425"/>
<path d="M68.9143 7.17739H71.4842V8.60706C72.3186 7.58685 73.6933 6.97266 75.1826 6.97266C78.091 6.97266 80.2796 8.81008 80.2796 12.3043V19.678H77.7319V12.6896C77.7319 10.398 76.4923 9.21782 74.62 9.21782C72.7477 9.21782 71.4859 10.398 71.4859 12.6896V19.678H68.916V7.17739H68.9143Z" fill="#232425"/>
<path d="M82.6001 9.28814H81.1348V7.17718H82.6001V4.06836H85.1939V7.17718H88.2152V9.28814H85.1939V16.2077C85.1939 17.1385 85.5547 17.5238 86.637 17.5238H88.2152V19.6795H86.1856C83.9765 19.6795 82.6001 18.7488 82.6001 16.2077V9.28814Z" fill="#232425"/>
<path d="M95.1404 6.97461C97.2384 6.97461 98.6815 7.97246 99.4475 8.99439V7.17934H102.041V19.6817H99.4475V17.8219C98.6575 18.8886 97.17 19.8864 95.0959 19.8864C91.8712 19.8864 89.2773 17.2318 89.2773 13.3746C89.2773 9.5174 91.8712 6.97633 95.1404 6.97633V6.97461ZM95.6807 9.21977C93.764 9.21977 91.9156 10.6718 91.9156 13.3712C91.9156 16.0705 93.764 17.6361 95.6807 17.6361C97.5974 17.6361 99.4458 16.1153 99.4458 13.4159C99.4458 10.7165 97.6197 9.21805 95.6807 9.21805V9.21977Z" fill="#232425"/>
<path d="M110.97 6.97493C114.261 6.97493 116.81 9.516 116.81 13.3732C116.81 17.2304 114.24 19.885 110.97 19.885C108.918 19.885 107.452 18.9543 106.64 17.8652V19.6803H104.07V2.89062H106.64V9.03944C107.452 7.90568 109.008 6.97493 110.97 6.97493ZM110.405 9.22009C108.489 9.22009 106.64 10.7409 106.64 13.4179C106.64 16.0949 108.489 17.6382 110.405 17.6382C112.322 17.6382 114.194 16.0726 114.194 13.3732C114.194 10.6739 112.346 9.22181 110.405 9.22181V9.22009Z" fill="#232425"/>
<path d="M117.668 3.86576C117.668 2.93501 118.39 2.20898 119.315 2.20898C120.24 2.20898 120.939 2.93501 120.939 3.86576C120.939 4.79651 120.217 5.52253 119.315 5.52253C118.412 5.52253 117.668 4.79651 117.668 3.86576ZM118.007 7.17759H120.576V19.68H118.007V7.17759Z" fill="#232425"/>
<path d="M122.605 2.89062H125.175V19.6803H122.605V2.89062Z" fill="#232425"/>
<path d="M126.867 3.86576C126.867 2.93501 127.589 2.20898 128.514 2.20898C129.439 2.20898 130.138 2.93501 130.138 3.86576C130.138 4.79651 129.417 5.52253 128.514 5.52253C127.611 5.52253 126.867 4.79651 126.867 3.86576ZM127.204 7.17759H129.774V19.68H127.204V7.17759Z" fill="#232425"/>
<path d="M136.835 6.97493C138.459 6.97493 140.172 7.74568 141.119 8.92589V2.89062H143.713V19.6803H141.119V17.7964C140.329 18.9302 138.842 19.8833 136.812 19.8833C133.543 19.8833 130.949 17.2287 130.949 13.3715C130.949 9.51428 133.543 6.97321 136.835 6.97321V6.97493ZM137.353 9.22009C135.436 9.22009 133.588 10.6721 133.588 13.3715C133.588 16.0708 135.436 17.6364 137.353 17.6364C139.269 17.6364 141.118 16.1156 141.118 13.4162C141.118 10.7169 139.292 9.21837 137.353 9.21837V9.22009Z" fill="#232425"/>
<path d="M150.748 6.97461C152.844 6.97461 154.289 7.97246 155.055 8.99439V7.17934H157.649V19.6817H155.055V17.8219C154.265 18.8886 152.777 19.8864 150.703 19.8864C147.479 19.8864 144.885 17.2318 144.885 13.3746C144.885 9.5174 147.479 6.97633 150.748 6.97633V6.97461ZM151.288 9.21977C149.371 9.21977 147.523 10.6718 147.523 13.3712C147.523 16.0705 149.371 17.6361 151.288 17.6361C153.205 17.6361 155.053 16.1153 155.053 13.4159C155.053 10.7165 153.227 9.21805 151.288 9.21805V9.21977Z" fill="#232425"/>
<path d="M164.706 6.97493C166.33 6.97493 168.043 7.74568 168.99 8.92589V2.89062H171.584V19.6803H168.99V17.7964C168.201 18.9302 166.713 19.8833 164.683 19.8833C161.414 19.8833 158.82 17.2287 158.82 13.3715C158.82 9.51428 161.414 6.97321 164.706 6.97321V6.97493ZM165.225 9.22009C163.309 9.22009 161.46 10.6721 161.46 13.3715C161.46 16.0708 163.309 17.6364 165.225 17.6364C167.142 17.6364 168.99 16.1156 168.99 13.4162C168.99 10.7169 167.164 9.21837 165.225 9.21837V9.22009Z" fill="#232425"/>
<path d="M178.956 19.8847C175.392 19.8847 172.754 17.3436 172.754 13.4176C172.754 9.4916 175.279 6.97461 178.956 6.97461C182.632 6.97461 184.998 9.44859 184.998 13.1234C184.998 13.5553 184.976 13.963 184.907 14.3948H175.414C175.596 16.4593 177.061 17.7067 178.956 17.7067C180.534 17.7067 181.414 16.9359 181.886 15.9587H184.66C183.96 18.1368 181.999 19.8847 178.954 19.8847H178.956ZM175.438 12.3062H182.315C182.271 10.3776 180.759 9.15267 178.843 9.15267C177.107 9.15267 175.709 10.3329 175.438 12.3062Z" fill="#232425"/>
<path d="M38.8711 34.6978C38.8711 33.767 39.5926 33.041 40.5177 33.041C41.4427 33.041 42.142 33.767 42.142 34.6978C42.142 35.6285 41.4205 36.3546 40.5177 36.3546C39.6149 36.3546 38.8711 35.6285 38.8711 34.6978Z" fill="#2BBE41"/>
<path d="M48.7919 23.4902C51.8355 23.4902 53.8206 25.0111 54.5199 27.6416H51.7466C51.3174 26.4391 50.3257 25.6683 48.7919 25.6683C46.7179 25.6683 45.3415 27.2115 45.3415 29.9332C45.3415 32.655 46.7162 34.2223 48.7919 34.2223C50.3257 34.2223 51.2729 33.541 51.7466 32.2489H54.5199C53.8206 34.6988 51.8372 36.4003 48.7919 36.4003C45.2286 36.4003 42.7032 33.8593 42.7032 29.9332C42.7032 26.0072 45.2286 23.4902 48.7919 23.4902Z" fill="#2BBE41"/>
<path d="M54.9023 29.9332C54.9023 26.0072 57.6979 23.4902 61.239 23.4902C64.7801 23.4902 67.5757 26.0089 67.5757 29.9332C67.5757 33.8575 64.6895 36.4003 61.1262 36.4003C57.5629 36.4003 54.9023 33.8593 54.9023 29.9332ZM64.9374 29.9332C64.9374 27.0963 63.1113 25.7354 61.1946 25.7354C59.2778 25.7354 57.5184 27.0963 57.5184 29.9332C57.5184 32.7702 59.1872 34.1535 61.1262 34.1535C63.0651 34.1535 64.9374 32.7702 64.9374 29.9332Z" fill="#2BBE41"/>
<path d="M68.7715 23.693H71.3414V25.1227C72.1758 24.1025 73.5283 23.4883 75.0175 23.4883C76.9787 23.4883 78.6253 24.3279 79.482 25.9623C80.248 24.4414 82.0074 23.4883 83.8113 23.4883C86.7197 23.4883 88.9305 25.3257 88.9305 28.8199V36.1937H86.3829V29.2053C86.3829 26.9137 85.1432 25.7334 83.271 25.7334C81.3987 25.7334 80.1368 26.9137 80.1368 29.2053V36.1937H77.5892V29.2053C77.5892 26.9137 76.3495 25.7334 74.4772 25.7334C72.605 25.7334 71.3431 26.9137 71.3431 29.2053V36.1937H68.7732V23.6913L68.7715 23.693Z" fill="#2BBE41"/>
</g>
<defs>
<clipPath id="clip0_2008_10104">
<rect width="185" height="40" fill="white"/>
</clipPath>
</defs>
</svg>
